<svg width="562" height="145" viewBox="0 0 562 145" fill="none" xmlns="http://www.w3.org/2000/svg">
<ellipse cx="281" cy="73" rx="281" ry="68" fill="#363636"/>
<mask id="path-2-outside-1_45_180" maskUnits="userSpaceOnUse" x="71" y="48" width="419" height="51" fill="black">
<rect fill="white" x="71" y="48" width="419" height="51"/>
<path d="M90.456 97.896C86.0613 97.896 82.3707 96.8507 79.384 94.76C76.3973 92.6267 74.2853 89.5333 73.048 85.48C73.0053 85.3947 72.984 85.288 72.984 85.16C72.984 84.8187 73.1973 84.584 73.624 84.456L80.28 82.856L80.536 82.792C80.92 82.792 81.176 83.0053 81.304 83.432C82.1573 85.5227 83.288 87.0587 84.696 88.04C86.1467 88.9787 88.0667 89.448 90.456 89.448C92.8453 89.448 94.7013 89.0427 96.024 88.232C97.3893 87.4213 98.072 86.1627 98.072 84.456C98.072 82.8347 97.432 81.512 96.152 80.488C94.9147 79.4213 92.9947 78.4187 90.392 77.48L86.232 76.008C78.2107 73.2773 74.2 68.712 74.2 62.312C74.2 59.7947 74.8827 57.5333 76.248 55.528C77.656 53.5227 79.5547 51.9653 81.944 50.856C84.3333 49.704 87 49.128 89.944 49.128C93.9547 49.128 97.3467 50.088 100.12 52.008C102.936 53.8853 104.92 56.744 106.072 60.584C106.115 60.6693 106.136 60.776 106.136 60.904C106.136 61.2453 105.923 61.48 105.496 61.608L98.456 63.4L98.2 63.464C97.816 63.464 97.56 63.2507 97.432 62.824C96.664 60.9467 95.6827 59.6027 94.488 58.792C93.2933 57.9813 91.7787 57.576 89.944 57.576C87.896 57.576 86.2533 57.9813 85.016 58.792C83.7787 59.6027 83.16 60.6907 83.16 62.056C83.16 63.5067 83.7787 64.7653 85.016 65.832C86.296 66.856 88.3227 67.8373 91.096 68.776L94.424 69.864C98.776 71.3147 101.955 73.1707 103.96 75.432C106.008 77.6507 107.032 80.6587 107.032 84.456C107.032 87.016 106.328 89.32 104.92 91.368C103.512 93.416 101.549 95.016 99.032 96.168C96.5147 97.32 93.656 97.896 90.456 97.896ZM127.108 97.64C123.993 97.64 121.262 96.9147 118.916 95.464C116.569 94.0133 114.756 91.9867 113.476 89.384C112.238 86.7813 111.62 83.7947 111.62 80.424C111.62 77.0533 112.238 74.0667 113.476 71.464C114.756 68.8613 116.569 66.8347 118.916 65.384C121.262 63.9333 123.993 63.208 127.108 63.208C129.412 63.208 131.481 63.656 133.316 64.552C135.193 65.448 136.729 66.728 137.924 68.392L138.116 64.68C138.116 64.1253 138.414 63.848 139.012 63.848H145.028C145.582 63.848 145.86 64.1253 145.86 64.68V96.168C145.86 96.7227 145.582 97 145.028 97H139.012C138.414 97 138.116 96.7227 138.116 96.168L137.924 92.456C136.729 94.12 135.193 95.4 133.316 96.296C131.481 97.192 129.412 97.64 127.108 97.64ZM129.156 90.088C131.801 90.088 133.956 89.192 135.62 87.4C137.284 85.608 138.116 83.2827 138.116 80.424C138.116 77.5653 137.284 75.24 135.62 73.448C133.956 71.656 131.801 70.76 129.156 70.76C126.51 70.76 124.356 71.656 122.692 73.448C121.028 75.24 120.196 77.5653 120.196 80.424C120.196 83.2827 121.028 85.608 122.692 87.4C124.356 89.192 126.51 90.088 129.156 90.088ZM155.372 97C154.817 97 154.54 96.7227 154.54 96.168V64.68C154.54 64.1253 154.817 63.848 155.372 63.848H161.388C161.985 63.848 162.284 64.1253 162.284 64.68L162.476 68.456C163.67 66.7493 165.228 65.448 167.148 64.552C169.068 63.656 171.116 63.208 173.292 63.208C177.132 63.208 180.097 64.296 182.188 66.472C184.321 68.6053 185.388 71.592 185.388 75.432V96.168C185.388 96.7227 185.11 97 184.556 97H177.9C177.345 97 177.068 96.7227 177.068 96.168V78.824C177.068 76.0507 176.556 74.024 175.532 72.744C174.508 71.4213 172.908 70.76 170.732 70.76C168.556 70.76 166.7 71.5707 165.164 73.192C163.628 74.8133 162.86 77.1173 162.86 80.104V96.168C162.86 96.7227 162.582 97 162.028 97H155.372ZM206.78 97.64C203.153 97.64 200.38 96.5093 198.46 94.248C196.583 91.9867 195.644 88.6373 195.644 84.2V71.272H190.78C190.225 71.272 189.948 70.9947 189.948 70.44V64.68C189.948 64.1253 190.225 63.848 190.78 63.848H195.644V54.952C195.644 54.3973 195.921 54.12 196.476 54.12H203.132C203.687 54.12 203.964 54.3973 203.964 54.952V63.848H211.836C212.391 63.848 212.668 64.1253 212.668 64.68V70.44C212.668 70.9947 212.391 71.272 211.836 71.272H203.964V84.712C203.964 86.504 204.263 87.848 204.86 88.744C205.457 89.64 206.396 90.088 207.676 90.088C208.743 90.088 209.575 89.5547 210.172 88.488C210.471 87.976 210.855 87.848 211.324 88.104L216.316 90.344C216.615 90.472 216.764 90.7067 216.764 91.048C216.764 91.2187 216.7 91.432 216.572 91.688C215.463 93.736 214.055 95.2507 212.348 96.232C210.641 97.1707 208.785 97.64 206.78 97.64ZM234.17 97.64C231.055 97.64 228.325 96.9147 225.978 95.464C223.631 94.0133 221.818 91.9867 220.538 89.384C219.301 86.7813 218.682 83.7947 218.682 80.424C218.682 77.0533 219.301 74.0667 220.538 71.464C221.818 68.8613 223.631 66.8347 225.978 65.384C228.325 63.9333 231.055 63.208 234.17 63.208C236.474 63.208 238.543 63.656 240.378 64.552C242.255 65.448 243.791 66.728 244.986 68.392L245.178 64.68C245.178 64.1253 245.477 63.848 246.074 63.848H252.09C252.645 63.848 252.922 64.1253 252.922 64.68V96.168C252.922 96.7227 252.645 97 252.09 97H246.074C245.477 97 245.178 96.7227 245.178 96.168L244.986 92.456C243.791 94.12 242.255 95.4 240.378 96.296C238.543 97.192 236.474 97.64 234.17 97.64ZM236.218 90.088C238.863 90.088 241.018 89.192 242.682 87.4C244.346 85.608 245.178 83.2827 245.178 80.424C245.178 77.5653 244.346 75.24 242.682 73.448C241.018 71.656 238.863 70.76 236.218 70.76C233.573 70.76 231.418 71.656 229.754 73.448C228.09 75.24 227.258 77.5653 227.258 80.424C227.258 83.2827 228.09 85.608 229.754 87.4C231.418 89.192 233.573 90.088 236.218 90.088ZM289.361 97C288.806 97 288.529 96.7227 288.529 96.168V58.152H274.001C273.489 58.152 273.233 57.8747 273.233 57.32V50.856C273.233 50.3013 273.489 50.024 274.001 50.024H311.633C312.187 50.024 312.465 50.3013 312.465 50.856V57.32C312.465 57.8747 312.187 58.152 311.633 58.152H297.169V96.168C297.169 96.7227 296.891 97 296.337 97H289.361ZM327.2 97.64C323.787 97.64 320.8 96.9147 318.24 95.464C315.723 94.0133 313.781 91.9867 312.416 89.384C311.093 86.7387 310.432 83.752 310.432 80.424C310.432 77.096 311.093 74.1307 312.416 71.528C313.781 68.8827 315.723 66.8347 318.24 65.384C320.8 63.9333 323.787 63.208 327.2 63.208C330.528 63.208 333.387 63.9973 335.776 65.576C338.208 67.112 340.021 69.3093 341.216 72.168C342.411 75.0267 342.965 78.3547 342.88 82.152C342.837 82.7067 342.539 82.984 341.984 82.984H319.264C319.648 85.288 320.523 87.08 321.888 88.36C323.296 89.64 325.088 90.28 327.264 90.28C330.592 90.28 333.024 89.0213 334.56 86.504C334.773 86.12 335.136 85.992 335.648 86.12L341.344 88.104C341.899 88.3173 342.048 88.68 341.792 89.192C340.384 92.008 338.4 94.12 335.84 95.528C333.28 96.936 330.4 97.64 327.2 97.64ZM333.984 76.776C333.6 74.8133 332.811 73.2987 331.616 72.232C330.421 71.1227 328.928 70.568 327.136 70.568C325.173 70.568 323.509 71.1227 322.144 72.232C320.821 73.2987 319.904 74.8133 319.392 76.776H333.984ZM349.872 97C349.317 97 349.04 96.7227 349.04 96.168V49.832C349.04 49.2773 349.317 49 349.872 49H356.528C357.082 49 357.36 49.2773 357.36 49.832V96.168C357.36 96.7227 357.082 97 356.528 97H349.872ZM366.872 97C366.317 97 366.04 96.7227 366.04 96.168V49.832C366.04 49.2773 366.317 49 366.872 49H373.528C374.082 49 374.36 49.2773 374.36 49.832V96.168C374.36 96.7227 374.082 97 373.528 97H366.872ZM398.702 97C398.147 97 397.87 96.7227 397.87 96.168V50.856C397.87 50.3013 398.147 50.024 398.702 50.024H406.062C406.531 50.024 406.851 50.216 407.022 50.6L423.278 77.608L439.342 50.6C439.555 50.216 439.875 50.024 440.302 50.024H447.47C448.025 50.024 448.302 50.3013 448.302 50.856V96.168C448.302 96.7227 448.025 97 447.47 97H440.814C440.259 97 439.982 96.7227 439.982 96.168V64.424L426.222 87.464C426.051 87.848 425.731 88.04 425.262 88.04H420.91C420.483 88.04 420.163 87.848 419.95 87.464L406.19 64.744V96.168C406.19 96.7227 405.913 97 405.358 97H398.702ZM472.638 97.64C469.224 97.64 466.238 96.9147 463.678 95.464C461.16 94.0133 459.219 91.9867 457.854 89.384C456.531 86.7387 455.87 83.752 455.87 80.424C455.87 77.096 456.531 74.1307 457.854 71.528C459.219 68.8827 461.16 66.8347 463.678 65.384C466.238 63.9333 469.224 63.208 472.638 63.208C475.966 63.208 478.824 63.9973 481.214 65.576C483.646 67.112 485.459 69.3093 486.654 72.168C487.848 75.0267 488.403 78.3547 488.318 82.152C488.275 82.7067 487.976 82.984 487.422 82.984H464.702C465.086 85.288 465.96 87.08 467.326 88.36C468.734 89.64 470.526 90.28 472.702 90.28C476.03 90.28 478.462 89.0213 479.998 86.504C480.211 86.12 480.574 85.992 481.086 86.12L486.782 88.104C487.336 88.3173 487.486 88.68 487.229 89.192C485.822 92.008 483.838 94.12 481.278 95.528C478.718 96.936 475.838 97.64 472.638 97.64ZM479.422 76.776C479.038 74.8133 478.248 73.2987 477.054 72.232C475.859 71.1227 474.366 70.568 472.574 70.568C470.611 70.568 468.947 71.1227 467.582 72.232C466.259 73.2987 465.342 74.8133 464.83 76.776H479.422Z"/>
</mask>
<path d="M90.456 97.896C86.0613 97.896 82.3707 96.8507 79.384 94.76C76.3973 92.6267 74.2853 89.5333 73.048 85.48C73.0053 85.3947 72.984 85.288 72.984 85.16C72.984 84.8187 73.1973 84.584 73.624 84.456L80.28 82.856L80.536 82.792C80.92 82.792 81.176 83.0053 81.304 83.432C82.1573 85.5227 83.288 87.0587 84.696 88.04C86.1467 88.9787 88.0667 89.448 90.456 89.448C92.8453 89.448 94.7013 89.0427 96.024 88.232C97.3893 87.4213 98.072 86.1627 98.072 84.456C98.072 82.8347 97.432 81.512 96.152 80.488C94.9147 79.4213 92.9947 78.4187 90.392 77.48L86.232 76.008C78.2107 73.2773 74.2 68.712 74.2 62.312C74.2 59.7947 74.8827 57.5333 76.248 55.528C77.656 53.5227 79.5547 51.9653 81.944 50.856C84.3333 49.704 87 49.128 89.944 49.128C93.9547 49.128 97.3467 50.088 100.12 52.008C102.936 53.8853 104.92 56.744 106.072 60.584C106.115 60.6693 106.136 60.776 106.136 60.904C106.136 61.2453 105.923 61.48 105.496 61.608L98.456 63.4L98.2 63.464C97.816 63.464 97.56 63.2507 97.432 62.824C96.664 60.9467 95.6827 59.6027 94.488 58.792C93.2933 57.9813 91.7787 57.576 89.944 57.576C87.896 57.576 86.2533 57.9813 85.016 58.792C83.7787 59.6027 83.16 60.6907 83.16 62.056C83.16 63.5067 83.7787 64.7653 85.016 65.832C86.296 66.856 88.3227 67.8373 91.096 68.776L94.424 69.864C98.776 71.3147 101.955 73.1707 103.96 75.432C106.008 77.6507 107.032 80.6587 107.032 84.456C107.032 87.016 106.328 89.32 104.92 91.368C103.512 93.416 101.549 95.016 99.032 96.168C96.5147 97.32 93.656 97.896 90.456 97.896ZM127.108 97.64C123.993 97.64 121.262 96.9147 118.916 95.464C116.569 94.0133 114.756 91.9867 113.476 89.384C112.238 86.7813 111.62 83.7947 111.62 80.424C111.62 77.0533 112.238 74.0667 113.476 71.464C114.756 68.8613 116.569 66.8347 118.916 65.384C121.262 63.9333 123.993 63.208 127.108 63.208C129.412 63.208 131.481 63.656 133.316 64.552C135.193 65.448 136.729 66.728 137.924 68.392L138.116 64.68C138.116 64.1253 138.414 63.848 139.012 63.848H145.028C145.582 63.848 145.86 64.1253 145.86 64.68V96.168C145.86 96.7227 145.582 97 145.028 97H139.012C138.414 97 138.116 96.7227 138.116 96.168L137.924 92.456C136.729 94.12 135.193 95.4 133.316 96.296C131.481 97.192 129.412 97.64 127.108 97.64ZM129.156 90.088C131.801 90.088 133.956 89.192 135.62 87.4C137.284 85.608 138.116 83.2827 138.116 80.424C138.116 77.5653 137.284 75.24 135.62 73.448C133.956 71.656 131.801 70.76 129.156 70.76C126.51 70.76 124.356 71.656 122.692 73.448C121.028 75.24 120.196 77.5653 120.196 80.424C120.196 83.2827 121.028 85.608 122.692 87.4C124.356 89.192 126.51 90.088 129.156 90.088ZM155.372 97C154.817 97 154.54 96.7227 154.54 96.168V64.68C154.54 64.1253 154.817 63.848 155.372 63.848H161.388C161.985 63.848 162.284 64.1253 162.284 64.68L162.476 68.456C163.67 66.7493 165.228 65.448 167.148 64.552C169.068 63.656 171.116 63.208 173.292 63.208C177.132 63.208 180.097 64.296 182.188 66.472C184.321 68.6053 185.388 71.592 185.388 75.432V96.168C185.388 96.7227 185.11 97 184.556 97H177.9C177.345 97 177.068 96.7227 177.068 96.168V78.824C177.068 76.0507 176.556 74.024 175.532 72.744C174.508 71.4213 172.908 70.76 170.732 70.76C168.556 70.76 166.7 71.5707 165.164 73.192C163.628 74.8133 162.86 77.1173 162.86 80.104V96.168C162.86 96.7227 162.582 97 162.028 97H155.372ZM206.78 97.64C203.153 97.64 200.38 96.5093 198.46 94.248C196.583 91.9867 195.644 88.6373 195.644 84.2V71.272H190.78C190.225 71.272 189.948 70.9947 189.948 70.44V64.68C189.948 64.1253 190.225 63.848 190.78 63.848H195.644V54.952C195.644 54.3973 195.921 54.12 196.476 54.12H203.132C203.687 54.12 203.964 54.3973 203.964 54.952V63.848H211.836C212.391 63.848 212.668 64.1253 212.668 64.68V70.44C212.668 70.9947 212.391 71.272 211.836 71.272H203.964V84.712C203.964 86.504 204.263 87.848 204.86 88.744C205.457 89.64 206.396 90.088 207.676 90.088C208.743 90.088 209.575 89.5547 210.172 88.488C210.471 87.976 210.855 87.848 211.324 88.104L216.316 90.344C216.615 90.472 216.764 90.7067 216.764 91.048C216.764 91.2187 216.7 91.432 216.572 91.688C215.463 93.736 214.055 95.2507 212.348 96.232C210.641 97.1707 208.785 97.64 206.78 97.64ZM234.17 97.64C231.055 97.64 228.325 96.9147 225.978 95.464C223.631 94.0133 221.818 91.9867 220.538 89.384C219.301 86.7813 218.682 83.7947 218.682 80.424C218.682 77.0533 219.301 74.0667 220.538 71.464C221.818 68.8613 223.631 66.8347 225.978 65.384C228.325 63.9333 231.055 63.208 234.17 63.208C236.474 63.208 238.543 63.656 240.378 64.552C242.255 65.448 243.791 66.728 244.986 68.392L245.178 64.68C245.178 64.1253 245.477 63.848 246.074 63.848H252.09C252.645 63.848 252.922 64.1253 252.922 64.68V96.168C252.922 96.7227 252.645 97 252.09 97H246.074C245.477 97 245.178 96.7227 245.178 96.168L244.986 92.456C243.791 94.12 242.255 95.4 240.378 96.296C238.543 97.192 236.474 97.64 234.17 97.64ZM236.218 90.088C238.863 90.088 241.018 89.192 242.682 87.4C244.346 85.608 245.178 83.2827 245.178 80.424C245.178 77.5653 244.346 75.24 242.682 73.448C241.018 71.656 238.863 70.76 236.218 70.76C233.573 70.76 231.418 71.656 229.754 73.448C228.09 75.24 227.258 77.5653 227.258 80.424C227.258 83.2827 228.09 85.608 229.754 87.4C231.418 89.192 233.573 90.088 236.218 90.088ZM289.361 97C288.806 97 288.529 96.7227 288.529 96.168V58.152H274.001C273.489 58.152 273.233 57.8747 273.233 57.32V50.856C273.233 50.3013 273.489 50.024 274.001 50.024H311.633C312.187 50.024 312.465 50.3013 312.465 50.856V57.32C312.465 57.8747 312.187 58.152 311.633 58.152H297.169V96.168C297.169 96.7227 296.891 97 296.337 97H289.361ZM327.2 97.64C323.787 97.64 320.8 96.9147 318.24 95.464C315.723 94.0133 313.781 91.9867 312.416 89.384C311.093 86.7387 310.432 83.752 310.432 80.424C310.432 77.096 311.093 74.1307 312.416 71.528C313.781 68.8827 315.723 66.8347 318.24 65.384C320.8 63.9333 323.787 63.208 327.2 63.208C330.528 63.208 333.387 63.9973 335.776 65.576C338.208 67.112 340.021 69.3093 341.216 72.168C342.411 75.0267 342.965 78.3547 342.88 82.152C342.837 82.7067 342.539 82.984 341.984 82.984H319.264C319.648 85.288 320.523 87.08 321.888 88.36C323.296 89.64 325.088 90.28 327.264 90.28C330.592 90.28 333.024 89.0213 334.56 86.504C334.773 86.12 335.136 85.992 335.648 86.12L341.344 88.104C341.899 88.3173 342.048 88.68 341.792 89.192C340.384 92.008 338.4 94.12 335.84 95.528C333.28 96.936 330.4 97.64 327.2 97.64ZM333.984 76.776C333.6 74.8133 332.811 73.2987 331.616 72.232C330.421 71.1227 328.928 70.568 327.136 70.568C325.173 70.568 323.509 71.1227 322.144 72.232C320.821 73.2987 319.904 74.8133 319.392 76.776H333.984ZM349.872 97C349.317 97 349.04 96.7227 349.04 96.168V49.832C349.04 49.2773 349.317 49 349.872 49H356.528C357.082 49 357.36 49.2773 357.36 49.832V96.168C357.36 96.7227 357.082 97 356.528 97H349.872ZM366.872 97C366.317 97 366.04 96.7227 366.04 96.168V49.832C366.04 49.2773 366.317 49 366.872 49H373.528C374.082 49 374.36 49.2773 374.36 49.832V96.168C374.36 96.7227 374.082 97 373.528 97H366.872ZM398.702 97C398.147 97 397.87 96.7227 397.87 96.168V50.856C397.87 50.3013 398.147 50.024 398.702 50.024H406.062C406.531 50.024 406.851 50.216 407.022 50.6L423.278 77.608L439.342 50.6C439.555 50.216 439.875 50.024 440.302 50.024H447.47C448.025 50.024 448.302 50.3013 448.302 50.856V96.168C448.302 96.7227 448.025 97 447.47 97H440.814C440.259 97 439.982 96.7227 439.982 96.168V64.424L426.222 87.464C426.051 87.848 425.731 88.04 425.262 88.04H420.91C420.483 88.04 420.163 87.848 419.95 87.464L406.19 64.744V96.168C406.19 96.7227 405.913 97 405.358 97H398.702ZM472.638 97.64C469.224 97.64 466.238 96.9147 463.678 95.464C461.16 94.0133 459.219 91.9867 457.854 89.384C456.531 86.7387 455.87 83.752 455.87 80.424C455.87 77.096 456.531 74.1307 457.854 71.528C459.219 68.8827 461.16 66.8347 463.678 65.384C466.238 63.9333 469.224 63.208 472.638 63.208C475.966 63.208 478.824 63.9973 481.214 65.576C483.646 67.112 485.459 69.3093 486.654 72.168C487.848 75.0267 488.403 78.3547 488.318 82.152C488.275 82.7067 487.976 82.984 487.422 82.984H464.702C465.086 85.288 465.96 87.08 467.326 88.36C468.734 89.64 470.526 90.28 472.702 90.28C476.03 90.28 478.462 89.0213 479.998 86.504C480.211 86.12 480.574 85.992 481.086 86.12L486.782 88.104C487.336 88.3173 487.486 88.68 487.229 89.192C485.822 92.008 483.838 94.12 481.278 95.528C478.718 96.936 475.838 97.64 472.638 97.64ZM479.422 76.776C479.038 74.8133 478.248 73.2987 477.054 72.232C475.859 71.1227 474.366 70.568 472.574 70.568C470.611 70.568 468.947 71.1227 467.582 72.232C466.259 73.2987 465.342 74.8133 464.83 76.776H479.422Z" fill="white"/>
<path d="M79.384 94.76L78.8027 95.5738L78.8105 95.5792L79.384 94.76ZM73.048 85.48L74.0044 85.188L73.9799 85.1078L73.9424 85.0328L73.048 85.48ZM73.624 84.456L73.3903 83.4837L73.3633 83.4902L73.3367 83.4982L73.624 84.456ZM80.28 82.856L80.5137 83.8283L80.5225 83.8261L80.28 82.856ZM80.536 82.792V81.792H80.4129L80.2935 81.8219L80.536 82.792ZM81.304 83.432L80.3462 83.7193L80.36 83.7654L80.3782 83.8099L81.304 83.432ZM84.696 88.04L84.1242 88.8604L84.1383 88.8702L84.1528 88.8796L84.696 88.04ZM96.024 88.232L95.5134 87.3721L95.5014 87.3794L96.024 88.232ZM96.152 80.488L95.4991 81.2454L95.513 81.2574L95.5273 81.2689L96.152 80.488ZM90.392 77.48L90.7313 76.5393L90.7256 76.5373L90.392 77.48ZM86.232 76.008L86.5656 75.0652L86.5543 75.0613L86.232 76.008ZM76.248 55.528L75.4296 54.9534L75.4255 54.9593L75.4214 54.9652L76.248 55.528ZM81.944 50.856L82.3651 51.763L82.3717 51.7599L82.3783 51.7568L81.944 50.856ZM100.12 52.008L99.5508 52.8302L99.558 52.8352L99.5653 52.84L100.12 52.008ZM106.072 60.584L105.114 60.8713L105.139 60.954L105.178 61.0312L106.072 60.584ZM105.496 61.608L105.743 62.5771L105.763 62.5719L105.783 62.5658L105.496 61.608ZM98.456 63.4L98.6985 64.3702L98.7027 64.3691L98.456 63.4ZM98.2 63.464V64.464H98.3231L98.4425 64.4341L98.2 63.464ZM97.432 62.824L98.3898 62.5367L98.3759 62.4902L98.3575 62.4454L97.432 62.824ZM94.488 58.792L93.9265 59.6195L93.9265 59.6195L94.488 58.792ZM85.016 58.792L85.564 59.6285L85.564 59.6285L85.016 58.792ZM85.016 65.832L84.3631 66.5894L84.377 66.6014L84.3913 66.6129L85.016 65.832ZM91.096 68.776L90.7754 69.7233L90.7853 69.7265L91.096 68.776ZM94.424 69.864L94.7402 68.9153L94.7347 68.9135L94.424 69.864ZM103.96 75.432L103.212 76.0955L103.218 76.103L103.225 76.1103L103.96 75.432ZM104.92 91.368L105.744 91.9345L104.92 91.368ZM99.032 96.168L99.4481 97.0773L99.032 96.168ZM90.456 96.896C86.2236 96.896 82.744 95.8913 79.9575 93.9408L78.8105 95.5792C81.9973 97.81 85.8991 98.896 90.456 98.896V96.896ZM79.9652 93.9463C77.1845 91.96 75.1879 89.0649 74.0044 85.188L72.0916 85.772C73.3828 90.0018 75.6101 93.2933 78.8028 95.5737L79.9652 93.9463ZM73.9424 85.0328C73.9887 85.1254 73.984 85.1833 73.984 85.16H71.984C71.984 85.3927 72.0219 85.6639 72.1536 85.9272L73.9424 85.0328ZM73.984 85.16C73.984 85.1801 73.9806 85.2205 73.9617 85.2713C73.9425 85.3234 73.9139 85.3677 73.8839 85.4007C73.8287 85.4615 73.8049 85.4457 73.9113 85.4138L73.3367 83.4982C73.0164 83.5942 72.6727 83.7599 72.4041 84.0553C72.1166 84.3715 71.984 84.7612 71.984 85.16H73.984ZM73.8577 85.4283L80.5137 83.8283L80.0463 81.8837L73.3903 83.4837L73.8577 85.4283ZM80.5225 83.8261L80.7785 83.7621L80.2935 81.8219L80.0375 81.8859L80.5225 83.8261ZM80.536 83.792C80.5392 83.792 80.5188 83.7923 80.4838 83.7807C80.447 83.7684 80.4088 83.7477 80.3758 83.7202C80.31 83.6654 80.32 83.6321 80.3462 83.7193L82.2618 83.1446C82.16 82.8053 81.978 82.4519 81.6562 82.1838C81.3216 81.9049 80.9243 81.792 80.536 81.792V83.792ZM80.3782 83.8099C81.2818 86.0238 82.5152 87.739 84.1242 88.8604L85.2678 87.2196C84.0608 86.3784 83.0329 85.0216 82.2298 83.0541L80.3782 83.8099ZM84.1528 88.8796C85.8161 89.9559 87.9451 90.448 90.456 90.448V88.448C88.1883 88.448 86.4772 88.0015 85.2393 87.2004L84.1528 88.8796ZM90.456 90.448C92.938 90.448 95.0034 90.0304 96.5466 89.0846L95.5014 87.3794C94.3992 88.0549 92.7526 88.448 90.456 88.448V90.448ZM96.5345 89.0919C98.2299 88.0852 99.072 86.4835 99.072 84.456H97.072C97.072 85.8418 96.5488 86.7574 95.5135 87.3721L96.5345 89.0919ZM99.072 84.456C99.072 82.527 98.2909 80.9185 96.7767 79.7071L95.5273 81.2689C96.5731 82.1055 97.072 83.1423 97.072 84.456H99.072ZM96.8049 79.7306C95.4326 78.5475 93.3804 77.4947 90.7313 76.5393L90.0527 78.4207C92.6089 79.3426 94.3967 80.2951 95.4991 81.2454L96.8049 79.7306ZM90.7256 76.5373L86.5656 75.0653L85.8984 76.9507L90.0584 78.4227L90.7256 76.5373ZM86.5543 75.0613C82.6471 73.7312 79.8124 71.9854 77.9593 69.876C76.1233 67.7861 75.2 65.2832 75.2 62.312H73.2C73.2 65.7408 74.282 68.7205 76.4567 71.196C78.6143 73.6519 81.7956 75.5541 85.9097 76.9547L86.5543 75.0613ZM75.2 62.312C75.2 59.9874 75.8267 57.9237 77.0746 56.0908L75.4214 54.9652C73.9387 57.143 73.2 59.6019 73.2 62.312H75.2ZM77.0664 56.1026C78.3659 54.2518 80.1227 52.8041 82.3651 51.763L81.5229 49.949C78.9866 51.1266 76.9461 52.7935 75.4296 54.9534L77.0664 56.1026ZM82.3783 51.7568C84.6179 50.677 87.1337 50.128 89.944 50.128V48.128C86.8663 48.128 84.0488 48.731 81.5097 49.9552L82.3783 51.7568ZM89.944 50.128C93.7906 50.128 96.9743 51.0465 99.5508 52.8302L100.689 51.1858C97.719 49.1295 94.1188 48.128 89.944 48.128V50.128ZM99.5653 52.84C102.153 54.5654 104.016 57.2113 105.114 60.8713L107.03 60.2967C105.824 56.2767 103.719 53.2053 100.675 51.1759L99.5653 52.84ZM105.178 61.0312C105.131 60.9386 105.136 60.8806 105.136 60.904H107.136C107.136 60.6714 107.098 60.4001 106.966 60.1368L105.178 61.0312ZM105.136 60.904C105.136 60.8839 105.139 60.8435 105.158 60.7927C105.178 60.7406 105.206 60.6963 105.236 60.6633C105.291 60.6025 105.315 60.6182 105.209 60.6502L105.783 62.5658C106.104 62.4697 106.447 62.3041 106.716 62.0087C107.003 61.6925 107.136 61.3028 107.136 60.904H105.136ZM105.249 60.6389L98.2093 62.4309L98.7027 64.3691L105.743 62.5771L105.249 60.6389ZM98.2135 62.4299L97.9575 62.4939L98.4425 64.4341L98.6985 64.3701L98.2135 62.4299ZM98.2 62.464C98.1968 62.464 98.2172 62.4636 98.2522 62.4753C98.289 62.4876 98.3272 62.5083 98.3602 62.5358C98.426 62.5906 98.416 62.6239 98.3898 62.5367L96.4742 63.1113C96.576 63.4507 96.758 63.8041 97.0798 64.0722C97.4144 64.3511 97.8117 64.464 98.2 64.464V62.464ZM98.3575 62.4454C97.544 60.4568 96.4606 58.9221 95.0495 57.9645L93.9265 59.6195C94.9047 60.2833 95.784 61.4366 96.5065 63.2026L98.3575 62.4454ZM95.0495 57.9645C93.6494 57.0145 91.9248 56.576 89.944 56.576V58.576C91.6326 58.576 92.9372 58.9482 93.9265 59.6195L95.0495 57.9645ZM89.944 56.576C87.7736 56.576 85.9196 57.0045 84.468 57.9555L85.564 59.6285C86.5871 58.9582 88.0184 58.576 89.944 58.576V56.576ZM84.468 57.9555C82.9766 58.9327 82.16 60.3213 82.16 62.056H84.16C84.16 61.06 84.5808 60.2727 85.564 59.6285L84.468 57.9555ZM82.16 62.056C82.16 63.8363 82.9365 65.3596 84.3631 66.5894L85.6689 65.0746C84.6209 64.1711 84.16 63.1771 84.16 62.056H82.16ZM84.3913 66.6129C85.8073 67.7456 87.9644 68.7718 90.7754 69.7232L91.4166 67.8288C88.681 66.9029 86.7847 65.9664 85.6407 65.0511L84.3913 66.6129ZM90.7853 69.7265L94.1133 70.8145L94.7347 68.9135L91.4067 67.8255L90.7853 69.7265ZM94.1078 70.8127C98.3727 72.2343 101.368 74.0165 103.212 76.0955L104.708 74.7685C102.541 72.3249 99.1793 70.395 94.7402 68.9153L94.1078 70.8127ZM103.225 76.1103C105.062 78.1 106.032 80.8426 106.032 84.456H108.032C108.032 80.4747 106.954 77.2013 104.695 74.7537L103.225 76.1103ZM106.032 84.456C106.032 86.8202 105.386 88.9254 104.096 90.8015L105.744 91.9345C107.27 89.7146 108.032 87.2118 108.032 84.456H106.032ZM104.096 90.8015C102.802 92.6839 100.988 94.1732 98.6159 95.2587L99.4481 97.0773C102.111 95.8588 104.222 94.1481 105.744 91.9345L104.096 90.8015ZM98.6159 95.2587C96.248 96.3423 93.5347 96.896 90.456 96.896V98.896C93.7773 98.896 96.7814 98.2977 99.4481 97.0773L98.6159 95.2587ZM118.916 95.464L118.39 96.3146L118.916 95.464ZM113.476 89.384L112.572 89.8134L112.578 89.8253L113.476 89.384ZM113.476 71.464L112.578 71.0226L112.572 71.0346L113.476 71.464ZM118.916 65.384L118.39 64.5334L118.916 65.384ZM133.315 64.552L132.877 65.4506L132.885 65.4545L133.315 64.552ZM137.924 68.392L137.111 68.9752L138.775 71.2924L138.922 68.4437L137.924 68.392ZM138.116 64.68L139.114 64.7317L139.116 64.7058V64.68H138.116ZM138.116 96.168H139.116V96.1422L139.114 96.1163L138.116 96.168ZM137.924 92.456L138.922 92.4043L138.775 89.5556L137.111 91.8728L137.924 92.456ZM133.315 96.296L132.885 95.3935L132.877 95.3974L133.315 96.296ZM135.619 87.4L134.887 86.7195L135.619 87.4ZM135.619 73.448L136.352 72.7675L135.619 73.448ZM122.692 73.448L121.959 72.7675L122.692 73.448ZM122.692 87.4L123.424 86.7195L122.692 87.4ZM127.107 96.64C124.154 96.64 121.61 95.9542 119.441 94.6134L118.39 96.3146C120.914 97.8751 123.832 98.64 127.107 98.64V96.64ZM119.441 94.6134C117.263 93.2667 115.574 91.3858 114.373 88.9427L112.578 89.8253C113.937 92.5875 115.875 94.7599 118.39 96.3146L119.441 94.6134ZM114.379 88.9546C113.215 86.507 112.619 83.6712 112.619 80.424H110.619C110.619 83.9182 111.261 87.0556 112.572 89.8134L114.379 88.9546ZM112.619 80.424C112.619 77.1768 113.215 74.341 114.379 71.8934L112.572 71.0346C111.261 73.7924 110.619 76.9298 110.619 80.424H112.619ZM114.373 71.9053C115.574 69.4622 117.263 67.5813 119.441 66.2346L118.39 64.5334C115.875 66.0881 113.937 68.2605 112.578 71.0227L114.373 71.9053ZM119.441 66.2346C121.61 64.8938 124.154 64.208 127.107 64.208V62.208C123.832 62.208 120.914 62.9729 118.39 64.5334L119.441 66.2346ZM127.107 64.208C129.279 64.208 131.195 64.6294 132.877 65.4506L133.754 63.6534C131.766 62.6826 129.544 62.208 127.107 62.208V64.208ZM132.885 65.4545C134.613 66.2791 136.016 67.4503 137.111 68.9752L138.736 67.8088C137.441 66.0057 135.773 64.6169 133.746 63.6495L132.885 65.4545ZM138.922 68.4437L139.114 64.7317L137.117 64.6283L136.925 68.3403L138.922 68.4437ZM139.116 64.68C139.116 64.6284 139.123 64.6258 139.113 64.6539C139.101 64.6875 139.072 64.7402 139.02 64.7888C138.969 64.8359 138.925 64.8523 138.915 64.8553C138.909 64.8571 138.936 64.848 139.012 64.848V62.848C138.576 62.848 138.064 62.9475 137.659 63.3232C137.24 63.7119 137.116 64.2287 137.116 64.68H139.116ZM139.012 64.848H145.027V62.848H139.012V64.848ZM145.027 64.848C145.086 64.848 145.096 64.8556 145.075 64.8487C145.05 64.8401 144.997 64.8159 144.944 64.7631C144.892 64.7103 144.867 64.6579 144.859 64.6322C144.852 64.6114 144.859 64.6217 144.859 64.68H146.859C146.859 64.2485 146.751 63.7412 146.359 63.3489C145.966 62.9565 145.459 62.848 145.027 62.848V64.848ZM144.859 64.68V96.168H146.859V64.68H144.859ZM144.859 96.168C144.859 96.2263 144.852 96.2366 144.859 96.2158C144.867 96.1901 144.892 96.1377 144.944 96.0849C144.997 96.0321 145.05 96.0079 145.075 95.9993C145.096 95.9924 145.086 96 145.027 96V98C145.459 98 145.966 97.8915 146.359 97.4991C146.751 97.1068 146.859 96.5995 146.859 96.168H144.859ZM145.027 96H139.012V98H145.027V96ZM139.012 96C138.936 96 138.909 95.9909 138.915 95.9927C138.925 95.9957 138.969 96.0121 139.02 96.0592C139.072 96.1078 139.101 96.1605 139.113 96.1941C139.123 96.2222 139.116 96.2196 139.116 96.168H137.116C137.116 96.6193 137.24 97.1361 137.659 97.5248C138.064 97.9005 138.576 98 139.012 98V96ZM139.114 96.1163L138.922 92.4043L136.925 92.5077L137.117 96.2197L139.114 96.1163ZM137.111 91.8728C136.016 93.3977 134.613 94.5689 132.885 95.3935L133.746 97.1985C135.773 96.2311 137.441 94.8423 138.736 93.0392L137.111 91.8728ZM132.877 95.3974C131.195 96.2186 129.279 96.64 127.107 96.64V98.64C129.544 98.64 131.766 98.1654 133.754 97.1946L132.877 95.3974ZM129.156 91.088C132.054 91.088 134.482 90.0941 136.352 88.0805L134.887 86.7195C133.429 88.2899 131.548 89.088 129.156 89.088V91.088ZM136.352 88.0805C138.217 86.0726 139.116 83.4896 139.116 80.424H137.116C137.116 83.0758 136.35 85.1434 134.887 86.7195L136.352 88.0805ZM139.116 80.424C139.116 77.3584 138.217 74.7754 136.352 72.7675L134.887 74.1284C136.35 75.7046 137.116 77.7722 137.116 80.424H139.116ZM136.352 72.7675C134.482 70.7539 132.054 69.76 129.156 69.76V71.76C131.548 71.76 133.429 72.5581 134.887 74.1284L136.352 72.7675ZM129.156 69.76C126.257 69.76 123.829 70.7539 121.959 72.7675L123.424 74.1284C124.882 72.5581 126.763 71.76 129.156 71.76V69.76ZM121.959 72.7675C120.094 74.7754 119.195 77.3584 119.195 80.424H121.195C121.195 77.7722 121.961 75.7046 123.424 74.1284L121.959 72.7675ZM119.195 80.424C119.195 83.4896 120.094 86.0726 121.959 88.0805L123.424 86.7195C121.961 85.1434 121.195 83.0758 121.195 80.424H119.195ZM121.959 88.0805C123.829 90.0941 126.257 91.088 129.156 91.088V89.088C126.763 89.088 124.882 88.2899 123.424 86.7195L121.959 88.0805ZM162.284 64.68H161.284V64.7054L161.285 64.7308L162.284 64.68ZM162.476 68.456L161.477 68.5068L161.625 71.4153L163.295 69.0295L162.476 68.456ZM167.147 64.552L166.725 63.6458V63.6458L167.147 64.552ZM182.188 66.472L181.466 67.1648L181.473 67.172L181.48 67.1791L182.188 66.472ZM175.532 72.744L174.741 73.3562L174.746 73.3625L174.751 73.3687L175.532 72.744ZM165.163 73.192L165.889 73.8797L165.163 73.192ZM155.371 96C155.313 96 155.303 95.9924 155.324 95.9993C155.349 96.0079 155.402 96.0321 155.455 96.0849C155.507 96.1377 155.532 96.1901 155.54 96.2158C155.547 96.2366 155.539 96.2263 155.539 96.168H153.539C153.539 96.5995 153.648 97.1068 154.04 97.4991C154.433 97.8915 154.94 98 155.371 98V96ZM155.539 96.168V64.68H153.539V96.168H155.539ZM155.539 64.68C155.539 64.6217 155.547 64.6114 155.54 64.6322C155.532 64.6579 155.507 64.7103 155.455 64.7631C155.402 64.8159 155.349 64.8401 155.324 64.8487C155.303 64.8556 155.313 64.848 155.371 64.848V62.848C154.94 62.848 154.433 62.9565 154.04 63.3489C153.648 63.7412 153.539 64.2485 153.539 64.68H155.539ZM155.371 64.848H161.387V62.848H155.371V64.848ZM161.387 64.848C161.463 64.848 161.49 64.8571 161.484 64.8553C161.474 64.8523 161.43 64.8359 161.379 64.7888C161.327 64.7402 161.298 64.6875 161.286 64.6539C161.276 64.6258 161.284 64.6284 161.284 64.68H163.284C163.284 64.2287 163.159 63.7119 162.74 63.3232C162.335 62.9475 161.823 62.848 161.387 62.848V64.848ZM161.285 64.7308L161.477 68.5068L163.474 68.4052L163.282 64.6292L161.285 64.7308ZM163.295 69.0295C164.387 67.4691 165.807 66.2813 167.57 65.4582L166.725 63.6458C164.648 64.6147 162.953 66.0296 161.656 67.8825L163.295 69.0295ZM167.57 65.4582C169.354 64.6257 171.258 64.208 173.292 64.208V62.208C170.973 62.208 168.781 62.6863 166.725 63.6458L167.57 65.4582ZM173.292 64.208C176.938 64.208 179.612 65.2352 181.466 67.1648L182.909 65.7792C180.581 63.3568 177.325 62.208 173.292 62.208V64.208ZM181.48 67.1791C183.379 69.0773 184.387 71.7813 184.387 75.432H186.387C186.387 71.4027 185.263 68.1334 182.895 65.7649L181.48 67.1791ZM184.387 75.432V96.168H186.387V75.432H184.387ZM184.387 96.168C184.387 96.2263 184.38 96.2366 184.387 96.2158C184.395 96.1901 184.42 96.1377 184.472 96.0849C184.525 96.0321 184.578 96.0079 184.603 95.9993C184.624 95.9924 184.614 96 184.555 96V98C184.987 98 185.494 97.8915 185.887 97.4991C186.279 97.1068 186.387 96.5995 186.387 96.168H184.387ZM184.555 96H177.9V98H184.555V96ZM177.9 96C177.841 96 177.831 95.9924 177.852 95.9993C177.877 96.0079 177.93 96.0321 177.983 96.0849C178.035 96.1377 178.06 96.1901 178.068 96.2158C178.075 96.2366 178.068 96.2263 178.068 96.168H176.068C176.068 96.5995 176.176 97.1068 176.568 97.4991C176.961 97.8915 177.468 98 177.9 98V96ZM178.068 96.168V78.824H176.068V96.168H178.068ZM178.068 78.824C178.068 75.9667 177.547 73.663 176.312 72.1193L174.751 73.3687C175.564 74.385 176.068 76.1346 176.068 78.824H178.068ZM176.322 72.1318C175.054 70.4943 173.116 69.76 170.731 69.76V71.76C172.699 71.76 173.961 72.3484 174.741 73.3562L176.322 72.1318ZM170.731 69.76C168.273 69.76 166.157 70.6895 164.438 72.5043L165.889 73.8797C167.242 72.4518 168.838 71.76 170.731 71.76V69.76ZM164.438 72.5043C162.673 74.3668 161.859 76.9498 161.859 80.104H163.859C163.859 77.2849 164.582 75.2598 165.889 73.8797L164.438 72.5043ZM161.859 80.104V96.168H163.859V80.104H161.859ZM161.859 96.168C161.859 96.2263 161.852 96.2366 161.859 96.2158C161.867 96.1901 161.892 96.1377 161.944 96.0849C161.997 96.0321 162.05 96.0079 162.075 95.9993C162.096 95.9924 162.086 96 162.027 96V98C162.459 98 162.966 97.8915 163.359 97.4991C163.751 97.1068 163.859 96.5995 163.859 96.168H161.859ZM162.027 96H155.371V98H162.027V96ZM198.46 94.248L197.691 94.8868L197.698 94.8952L198.46 94.248ZM195.644 71.272H196.644V70.272H195.644V71.272ZM195.644 63.848V64.848H196.644V63.848H195.644ZM203.964 63.848H202.964V64.848H203.964V63.848ZM203.964 71.272V70.272H202.964V71.272H203.964ZM204.86 88.744L205.692 88.1893L204.86 88.744ZM210.172 88.488L209.308 87.9841L209.304 87.9917L209.299 87.9994L210.172 88.488ZM211.324 88.104L210.845 88.9819L210.879 89.0005L210.915 89.0164L211.324 88.104ZM216.316 90.344L215.907 91.2564L215.914 91.2598L215.922 91.2631L216.316 90.344ZM216.572 91.688L217.451 92.1643L217.459 92.1499L217.466 92.1352L216.572 91.688ZM212.348 96.232L212.83 97.1082L212.838 97.1036L212.846 97.0989L212.348 96.232ZM206.78 96.64C203.375 96.64 200.91 95.5891 199.222 93.6008L197.698 94.8952C199.85 97.4296 202.931 98.64 206.78 98.64V96.64ZM199.229 93.6092C197.561 91.5991 196.644 88.5182 196.644 84.2H194.644C194.644 88.7565 195.605 92.3742 197.691 94.8868L199.229 93.6092ZM196.644 84.2V71.272H194.644V84.2H196.644ZM195.644 70.272H190.78V72.272H195.644V70.272ZM190.78 70.272C190.722 70.272 190.711 70.2644 190.732 70.2713C190.758 70.2799 190.81 70.3041 190.863 70.3569C190.916 70.4097 190.94 70.4621 190.949 70.4878C190.956 70.5086 190.948 70.4983 190.948 70.44H188.948C188.948 70.8715 189.057 71.3788 189.449 71.7711C189.841 72.1635 190.349 72.272 190.78 72.272V70.272ZM190.948 70.44V64.68H188.948V70.44H190.948ZM190.948 64.68C190.948 64.6217 190.956 64.6114 190.949 64.6322C190.94 64.6579 190.916 64.7103 190.863 64.7631C190.81 64.8159 190.758 64.8401 190.732 64.8487C190.711 64.8556 190.722 64.848 190.78 64.848V62.848C190.349 62.848 189.841 62.9565 189.449 63.3489C189.057 63.7412 188.948 64.2485 188.948 64.68H190.948ZM190.78 64.848H195.644V62.848H190.78V64.848ZM196.644 63.848V54.952H194.644V63.848H196.644ZM196.644 54.952C196.644 54.8937 196.652 54.8834 196.645 54.9042C196.636 54.9299 196.612 54.9823 196.559 55.0351C196.506 55.0879 196.454 55.1121 196.428 55.1207C196.407 55.1276 196.418 55.12 196.476 55.12V53.12C196.045 53.12 195.537 53.2285 195.145 53.6209C194.753 54.0132 194.644 54.5205 194.644 54.952H196.644ZM196.476 55.12H203.132V53.12H196.476V55.12ZM203.132 55.12C203.19 55.12 203.201 55.1276 203.18 55.1207C203.154 55.1121 203.102 55.0879 203.049 55.0351C202.996 54.9823 202.972 54.9299 202.963 54.9042C202.956 54.8834 202.964 54.8937 202.964 54.952H204.964C204.964 54.5205 204.855 54.0132 204.463 53.6209C204.071 53.2285 203.563 53.12 203.132 53.12V55.12ZM202.964 54.952V63.848H204.964V54.952H202.964ZM203.964 64.848H211.836V62.848H203.964V64.848ZM211.836 64.848C211.894 64.848 211.905 64.8556 211.884 64.8487C211.858 64.8401 211.806 64.8159 211.753 64.7631C211.7 64.7103 211.676 64.6579 211.667 64.6322C211.66 64.6114 211.668 64.6217 211.668 64.68H213.668C213.668 64.2485 213.559 63.7412 213.167 63.3489C212.775 62.9565 212.267 62.848 211.836 62.848V64.848ZM211.668 64.68V70.44H213.668V64.68H211.668ZM211.668 70.44C211.668 70.4983 211.66 70.5086 211.667 70.4878C211.676 70.4621 211.7 70.4097 211.753 70.3569C211.806 70.3041 211.858 70.2799 211.884 70.2713C211.905 70.2644 211.894 70.272 211.836 70.272V72.272C212.267 72.272 212.775 72.1635 213.167 71.7711C213.559 71.3788 213.668 70.8715 213.668 70.44H211.668ZM211.836 70.272H203.964V72.272H211.836V70.272ZM202.964 71.272V84.712H204.964V71.272H202.964ZM202.964 84.712C202.964 86.5835 203.27 88.1621 204.028 89.2987L205.692 88.1893C205.255 87.5339 204.964 86.4245 204.964 84.712H202.964ZM204.028 89.2987C204.848 90.5284 206.134 91.088 207.676 91.088V89.088C206.658 89.088 206.067 88.7516 205.692 88.1893L204.028 89.2987ZM207.676 91.088C209.164 91.088 210.301 90.3035 211.045 88.9766L209.299 87.9994C208.848 88.8059 208.321 89.088 207.676 89.088V91.088ZM211.036 88.9919C211.074 88.9262 211.097 88.9045 211.096 88.9055C211.092 88.9089 211.061 88.9364 211 88.9567C210.937 88.9778 210.878 88.9787 210.84 88.9729C210.807 88.968 210.807 88.9611 210.845 88.9819L211.803 87.2261C211.406 87.0099 210.9 86.8818 210.368 87.0593C209.859 87.2291 209.524 87.6137 209.308 87.9841L211.036 88.9919ZM210.915 89.0164L215.907 91.2564L216.725 89.4316L211.733 87.1916L210.915 89.0164ZM215.922 91.2631C215.923 91.2634 215.907 91.2566 215.883 91.2372C215.858 91.2171 215.831 91.1887 215.808 91.1529C215.76 91.0768 215.764 91.0242 215.764 91.048H217.764C217.764 90.7305 217.693 90.3899 217.496 90.0791C217.296 89.7649 217.012 89.5544 216.71 89.4249L215.922 91.2631ZM215.764 91.048C215.764 91.0116 215.77 91.0085 215.758 91.0486C215.747 91.0874 215.723 91.1505 215.678 91.2408L217.466 92.1352C217.623 91.8226 217.764 91.4452 217.764 91.048H215.764ZM215.693 91.2117C214.655 93.1269 213.368 94.4919 211.85 95.3651L212.846 97.0989C214.741 96.0094 216.27 94.3451 217.451 92.1643L215.693 91.2117ZM211.866 95.3558C210.312 96.2108 208.622 96.64 206.78 96.64V98.64C208.949 98.64 210.971 98.1306 212.83 97.1082L211.866 95.3558ZM225.978 95.464L225.452 96.3146L225.978 95.464ZM220.538 89.384L219.635 89.8134L219.641 89.8253L220.538 89.384ZM220.538 71.464L219.641 71.0226L219.635 71.0346L220.538 71.464ZM225.978 65.384L225.452 64.5334L225.978 65.384ZM240.378 64.552L239.939 65.4506L239.947 65.4545L240.378 64.552ZM244.986 68.392L244.174 68.9752L245.837 71.2924L245.985 68.4437L244.986 68.392ZM245.178 64.68L246.177 64.7317L246.178 64.7058V64.68H245.178ZM245.178 96.168H246.178V96.1422L246.177 96.1163L245.178 96.168ZM244.986 92.456L245.985 92.4043L245.837 89.5556L244.174 91.8728L244.986 92.456ZM240.378 96.296L239.947 95.3935L239.939 95.3974L240.378 96.296ZM242.682 87.4L241.949 86.7195L242.682 87.4ZM242.682 73.448L243.415 72.7675L242.682 73.448ZM229.754 73.448L229.021 72.7675L229.754 73.448ZM229.754 87.4L230.487 86.7195L229.754 87.4ZM234.17 96.64C231.217 96.64 228.673 95.9542 226.504 94.6134L225.452 96.3146C227.977 97.8751 230.894 98.64 234.17 98.64V96.64ZM226.504 94.6134C224.325 93.2667 222.637 91.3858 221.435 88.9427L219.641 89.8253C220.999 92.5875 222.937 94.7599 225.452 96.3146L226.504 94.6134ZM221.441 88.9546C220.278 86.507 219.682 83.6712 219.682 80.424H217.682C217.682 83.9182 218.324 87.0556 219.635 89.8134L221.441 88.9546ZM219.682 80.424C219.682 77.1768 220.278 74.341 221.441 71.8934L219.635 71.0346C218.324 73.7924 217.682 76.9298 217.682 80.424H219.682ZM221.435 71.9053C222.637 69.4622 224.325 67.5813 226.504 66.2346L225.452 64.5334C222.937 66.0881 220.999 68.2605 219.641 71.0227L221.435 71.9053ZM226.504 66.2346C228.673 64.8938 231.217 64.208 234.17 64.208V62.208C230.894 62.208 227.977 62.9729 225.452 64.5334L226.504 66.2346ZM234.17 64.208C236.342 64.208 238.258 64.6294 239.939 65.4506L240.817 63.6534C238.829 62.6826 236.606 62.208 234.17 62.208V64.208ZM239.947 65.4545C241.675 66.2791 243.079 67.4503 244.174 68.9752L245.798 67.8088C244.504 66.0057 242.836 64.6169 240.809 63.6495L239.947 65.4545ZM245.985 68.4437L246.177 64.7317L244.179 64.6283L243.987 68.3403L245.985 68.4437ZM246.178 64.68C246.178 64.6284 246.185 64.6258 246.175 64.6539C246.163 64.6875 246.135 64.7402 246.082 64.7888C246.032 64.8359 245.987 64.8523 245.978 64.8553C245.972 64.8571 245.999 64.848 246.074 64.848V62.848C245.639 62.848 245.126 62.9475 244.722 63.3232C244.303 63.7119 244.178 64.2287 244.178 64.68H246.178ZM246.074 64.848H252.09V62.848H246.074V64.848ZM252.09 64.848C252.148 64.848 252.159 64.8556 252.138 64.8487C252.112 64.8401 252.06 64.8159 252.007 64.7631C251.954 64.7103 251.93 64.6579 251.921 64.6322C251.914 64.6114 251.922 64.6217 251.922 64.68H253.922C253.922 64.2485 253.813 63.7412 253.421 63.3489C253.029 62.9565 252.521 62.848 252.09 62.848V64.848ZM251.922 64.68V96.168H253.922V64.68H251.922ZM251.922 96.168C251.922 96.2263 251.914 96.2366 251.921 96.2158C251.93 96.1901 251.954 96.1377 252.007 96.0849C252.06 96.0321 252.112 96.0079 252.138 95.9993C252.159 95.9924 252.148 96 252.09 96V98C252.521 98 253.029 97.8915 253.421 97.4991C253.813 97.1068 253.922 96.5995 253.922 96.168H251.922ZM252.09 96H246.074V98H252.09V96ZM246.074 96C245.999 96 245.972 95.9909 245.978 95.9927C245.987 95.9957 246.032 96.0121 246.082 96.0592C246.135 96.1078 246.163 96.1605 246.175 96.1941C246.185 96.2222 246.178 96.2196 246.178 96.168H244.178C244.178 96.6193 244.303 97.1361 244.722 97.5248C245.126 97.9005 245.639 98 246.074 98V96ZM246.177 96.1163L245.985 92.4043L243.987 92.5077L244.179 96.2197L246.177 96.1163ZM244.174 91.8728C243.079 93.3977 241.675 94.5689 239.947 95.3935L240.809 97.1985C242.836 96.2311 244.504 94.8423 245.798 93.0392L244.174 91.8728ZM239.939 95.3974C238.258 96.2186 236.342 96.64 234.17 96.64V98.64C236.606 98.64 238.829 98.1654 240.817 97.1946L239.939 95.3974ZM236.218 91.088C239.116 91.088 241.545 90.0941 243.415 88.0805L241.949 86.7195C240.491 88.2899 238.611 89.088 236.218 89.088V91.088ZM243.415 88.0805C245.279 86.0726 246.178 83.4896 246.178 80.424H244.178C244.178 83.0758 243.413 85.1434 241.949 86.7195L243.415 88.0805ZM246.178 80.424C246.178 77.3584 245.279 74.7754 243.415 72.7675L241.949 74.1284C243.413 75.7046 244.178 77.7722 244.178 80.424H246.178ZM243.415 72.7675C241.545 70.7539 239.116 69.76 236.218 69.76V71.76C238.611 71.76 240.491 72.5581 241.949 74.1284L243.415 72.7675ZM236.218 69.76C233.32 69.76 230.891 70.7539 229.021 72.7675L230.487 74.1284C231.945 72.5581 233.825 71.76 236.218 71.76V69.76ZM229.021 72.7675C227.157 74.7754 226.258 77.3584 226.258 80.424H228.258C228.258 77.7722 229.023 75.7046 230.487 74.1284L229.021 72.7675ZM226.258 80.424C226.258 83.4896 227.157 86.0726 229.021 88.0805L230.487 86.7195C229.023 85.1434 228.258 83.0758 228.258 80.424H226.258ZM229.021 88.0805C230.891 90.0941 233.32 91.088 236.218 91.088V89.088C233.825 89.088 231.945 88.2899 230.487 86.7195L229.021 88.0805ZM288.529 58.152H289.529V57.152H288.529V58.152ZM297.169 58.152V57.152H296.169V58.152H297.169ZM289.361 96C289.302 96 289.292 95.9924 289.313 95.9993C289.338 96.0079 289.391 96.0321 289.444 96.0849C289.496 96.1377 289.521 96.1901 289.529 96.2158C289.536 96.2366 289.529 96.2263 289.529 96.168H287.529C287.529 96.5995 287.637 97.1068 288.029 97.4991C288.422 97.8915 288.929 98 289.361 98V96ZM289.529 96.168V58.152H287.529V96.168H289.529ZM288.529 57.152H274.001V59.152H288.529V57.152ZM274.001 57.152C273.96 57.152 273.968 57.1462 274.004 57.1594C274.046 57.1747 274.106 57.2077 274.159 57.2657C274.267 57.3824 274.232 57.4622 274.232 57.32H272.232C272.232 57.7325 272.326 58.2283 272.69 58.6223C273.067 59.0314 273.569 59.152 274.001 59.152V57.152ZM274.232 57.32V50.856H272.232V57.32H274.232ZM274.232 50.856C274.232 50.7138 274.267 50.7936 274.159 50.9103C274.106 50.9683 274.046 51.0013 274.004 51.0166C273.968 51.0298 273.96 51.024 274.001 51.024V49.024C273.569 49.024 273.067 49.1446 272.69 49.5537C272.326 49.9477 272.232 50.4435 272.232 50.856H274.232ZM274.001 51.024H311.633V49.024H274.001V51.024ZM311.633 51.024C311.691 51.024 311.701 51.0316 311.68 51.0247C311.655 51.0161 311.602 50.9919 311.549 50.9391C311.497 50.8863 311.472 50.8339 311.464 50.8082C311.457 50.7874 311.465 50.7977 311.465 50.856H313.465C313.465 50.4245 313.356 49.9172 312.964 49.5249C312.571 49.1325 312.064 49.024 311.633 49.024V51.024ZM311.465 50.856V57.32H313.465V50.856H311.465ZM311.465 57.32C311.465 57.3783 311.457 57.3886 311.464 57.3678C311.472 57.3421 311.497 57.2897 311.549 57.2369C311.602 57.1841 311.655 57.1599 311.68 57.1513C311.701 57.1444 311.691 57.152 311.633 57.152V59.152C312.064 59.152 312.571 59.0434 312.964 58.6511C313.356 58.2588 313.465 57.7515 313.465 57.32H311.465ZM311.633 57.152H297.169V59.152H311.633V57.152ZM296.169 58.152V96.168H298.169V58.152H296.169ZM296.169 96.168C296.169 96.2263 296.161 96.2366 296.168 96.2158C296.176 96.1901 296.201 96.1377 296.253 96.0849C296.306 96.0321 296.359 96.0079 296.384 95.9993C296.405 95.9924 296.395 96 296.337 96V98C296.768 98 297.275 97.8915 297.668 97.4991C298.06 97.1068 298.169 96.5995 298.169 96.168H296.169ZM296.337 96H289.361V98H296.337V96ZM318.24 95.464L317.741 96.3305L317.747 96.334L318.24 95.464ZM312.416 89.384L311.522 89.8312L311.526 89.8399L311.53 89.8485L312.416 89.384ZM312.416 71.528L311.527 71.0693L311.525 71.0749L312.416 71.528ZM318.24 65.384L317.747 64.514L317.741 64.5176L318.24 65.384ZM335.776 65.576L335.225 66.4103L335.233 66.416L335.242 66.4215L335.776 65.576ZM341.216 72.168L342.139 71.7824L341.216 72.168ZM342.88 82.152L343.877 82.2287L343.879 82.2016L343.88 82.1745L342.88 82.152ZM319.264 82.984V81.984H318.084L318.278 83.1484L319.264 82.984ZM321.888 88.36L321.204 89.0895L321.21 89.0948L321.215 89.0999L321.888 88.36ZM334.56 86.504L335.414 87.0249L335.424 87.0075L335.434 86.9896L334.56 86.504ZM335.648 86.12L335.977 85.1756L335.934 85.1608L335.891 85.1499L335.648 86.12ZM341.344 88.104L341.703 87.1707L341.688 87.1649L341.673 87.1596L341.344 88.104ZM341.792 89.192L340.898 88.7448V88.7448L341.792 89.192ZM335.84 95.528L335.358 94.6518L335.84 95.528ZM333.984 76.776V77.776H335.199L334.965 76.584L333.984 76.776ZM331.616 72.232L330.936 72.9648L330.943 72.9714L330.95 72.9779L331.616 72.232ZM322.144 72.232L322.772 73.0104L322.775 73.0081L322.144 72.232ZM319.392 76.776L318.424 76.5236L318.098 77.776H319.392V76.776ZM327.2 96.64C323.932 96.64 321.12 95.9467 318.733 94.594L317.747 96.334C320.48 97.8827 323.642 98.64 327.2 98.64V96.64ZM318.739 94.5976C316.388 93.2427 314.58 91.3563 313.302 88.9194L311.53 89.8485C312.983 92.617 315.057 94.784 317.741 96.3304L318.739 94.5976ZM313.31 88.9368C312.065 86.4468 311.432 83.6164 311.432 80.424H309.432C309.432 83.8876 310.121 87.0305 311.522 89.8312L313.31 88.9368ZM311.432 80.424C311.432 77.2313 312.066 74.4248 313.307 71.981L311.525 71.0749C310.121 73.8365 309.432 76.9607 309.432 80.424H311.432ZM313.305 71.9866C314.584 69.5073 316.392 67.6029 318.739 66.2504L317.741 64.5176C315.053 66.0665 312.978 68.258 311.527 71.0694L313.305 71.9866ZM318.733 66.254C321.12 64.9013 323.932 64.208 327.2 64.208V62.208C323.642 62.208 320.48 62.9653 317.747 64.514L318.733 66.254ZM327.2 64.208C330.365 64.208 333.024 64.9564 335.225 66.4103L336.327 64.7417C333.749 63.0383 330.691 62.208 327.2 62.208V64.208ZM335.242 66.4215C337.487 67.8392 339.171 69.8691 340.293 72.5536L342.139 71.7824C340.871 68.7495 338.929 66.3848 336.31 64.7305L335.242 66.4215ZM340.293 72.5536C341.423 75.2574 341.963 78.4413 341.88 82.1295L343.88 82.1745C343.968 78.2681 343.398 74.7959 342.139 71.7824L340.293 72.5536ZM341.883 82.0753C341.878 82.1336 341.87 82.1488 341.875 82.1364C341.881 82.1203 341.901 82.0823 341.944 82.0432C341.986 82.0041 342.025 81.9866 342.043 81.981C342.056 81.9766 342.042 81.984 341.984 81.984V83.984C342.421 83.984 342.912 83.8732 343.304 83.5088C343.696 83.1449 343.844 82.6641 343.877 82.2287L341.883 82.0753ZM341.984 81.984H319.264V83.984H341.984V81.984ZM318.278 83.1484C318.689 85.6142 319.642 87.6255 321.204 89.0895L322.572 87.6305C321.403 86.5345 320.607 84.9618 320.25 82.8196L318.278 83.1484ZM321.215 89.0999C322.834 90.5713 324.877 91.28 327.264 91.28V89.28C325.299 89.28 323.758 88.7087 322.561 87.6201L321.215 89.0999ZM327.264 91.28C330.887 91.28 333.67 89.8827 335.414 87.0249L333.706 85.9831C332.378 88.16 330.297 89.28 327.264 89.28V91.28ZM335.434 86.9896C335.44 86.9785 335.435 86.9909 335.412 87.0114C335.388 87.0333 335.357 87.0518 335.325 87.063C335.295 87.0735 335.281 87.072 335.292 87.072C335.305 87.072 335.341 87.074 335.405 87.0901L335.891 85.1499C335.513 85.0555 335.083 85.0276 334.659 85.177C334.215 85.3338 333.893 85.6453 333.686 86.0184L335.434 86.9896ZM335.319 87.0644L341.015 89.0484L341.673 87.1596L335.977 85.1756L335.319 87.0644ZM340.985 89.0373C341.053 89.0635 341.066 89.0784 341.051 89.066C341.031 89.0499 340.982 89.0021 340.947 88.9167C340.912 88.8299 340.911 88.7545 340.915 88.7149C340.919 88.6825 340.925 88.6901 340.898 88.7448L342.686 89.6392C342.883 89.246 343.024 88.708 342.797 88.1553C342.574 87.614 342.106 87.3255 341.703 87.1707L340.985 89.0373ZM340.898 88.7448C339.573 91.394 337.726 93.3493 335.358 94.6518L336.322 96.4042C339.074 94.8907 341.195 92.622 342.686 89.6392L340.898 88.7448ZM335.358 94.6518C332.96 95.971 330.248 96.64 327.2 96.64V98.64C330.552 98.64 333.6 97.901 336.322 96.4042L335.358 94.6518ZM334.965 76.584C334.55 74.4614 333.676 72.7309 332.282 71.4861L330.95 72.9779C331.945 73.8664 332.65 75.1653 333.003 76.968L334.965 76.584ZM332.296 71.4992C330.898 70.2005 329.153 69.568 327.136 69.568V71.568C328.703 71.568 329.945 72.0449 330.936 72.9648L332.296 71.4992ZM327.136 69.568C324.972 69.568 323.078 70.1849 321.513 71.4559L322.775 73.0081C323.941 72.0604 325.375 71.568 327.136 71.568V69.568ZM321.516 71.4536C319.997 72.6792 318.98 74.395 318.424 76.5236L320.36 77.0284C320.828 75.2317 321.646 73.9181 322.772 73.0104L321.516 71.4536ZM319.392 77.776H333.984V75.776H319.392V77.776ZM349.871 96C349.813 96 349.803 95.9924 349.824 95.9993C349.849 96.0079 349.902 96.0321 349.955 96.0849C350.007 96.1377 350.032 96.1901 350.04 96.2158C350.047 96.2366 350.039 96.2263 350.039 96.168H348.039C348.039 96.5995 348.148 97.1068 348.54 97.4991C348.933 97.8915 349.44 98 349.871 98V96ZM350.039 96.168V49.832H348.039V96.168H350.039ZM350.039 49.832C350.039 49.7737 350.047 49.7634 350.04 49.7842C350.032 49.8099 350.007 49.8623 349.955 49.9151C349.902 49.9679 349.849 49.9921 349.824 50.0007C349.803 50.0076 349.813 50 349.871 50V48C349.44 48 348.933 48.1085 348.54 48.5009C348.148 48.8932 348.039 49.4005 348.039 49.832H350.039ZM349.871 50H356.527V48H349.871V50ZM356.527 50C356.586 50 356.596 50.0076 356.575 50.0007C356.55 49.9921 356.497 49.9679 356.444 49.9151C356.392 49.8623 356.367 49.8099 356.359 49.7842C356.352 49.7634 356.359 49.7737 356.359 49.832H358.359C358.359 49.4005 358.251 48.8932 357.859 48.5009C357.466 48.1085 356.959 48 356.527 48V50ZM356.359 49.832V96.168H358.359V49.832H356.359ZM356.359 96.168C356.359 96.2263 356.352 96.2366 356.359 96.2158C356.367 96.1901 356.392 96.1377 356.444 96.0849C356.497 96.0321 356.55 96.0079 356.575 95.9993C356.596 95.9924 356.586 96 356.527 96V98C356.959 98 357.466 97.8915 357.859 97.4991C358.251 97.1068 358.359 96.5995 358.359 96.168H356.359ZM356.527 96H349.871V98H356.527V96ZM366.871 96C366.813 96 366.803 95.9924 366.824 95.9993C366.849 96.0079 366.902 96.0321 366.955 96.0849C367.007 96.1377 367.032 96.1901 367.04 96.2158C367.047 96.2366 367.039 96.2263 367.039 96.168H365.039C365.039 96.5995 365.148 97.1068 365.54 97.4991C365.933 97.8915 366.44 98 366.871 98V96ZM367.039 96.168V49.832H365.039V96.168H367.039ZM367.039 49.832C367.039 49.7737 367.047 49.7634 367.04 49.7842C367.032 49.8099 367.007 49.8623 366.955 49.9151C366.902 49.9679 366.849 49.9921 366.824 50.0007C366.803 50.0076 366.813 50 366.871 50V48C366.44 48 365.933 48.1085 365.54 48.5009C365.148 48.8932 365.039 49.4005 365.039 49.832H367.039ZM366.871 50H373.527V48H366.871V50ZM373.527 50C373.586 50 373.596 50.0076 373.575 50.0007C373.55 49.9921 373.497 49.9679 373.444 49.9151C373.392 49.8623 373.367 49.8099 373.359 49.7842C373.352 49.7634 373.359 49.7737 373.359 49.832H375.359C375.359 49.4005 375.251 48.8932 374.859 48.5009C374.466 48.1085 373.959 48 373.527 48V50ZM373.359 49.832V96.168H375.359V49.832H373.359ZM373.359 96.168C373.359 96.2263 373.352 96.2366 373.359 96.2158C373.367 96.1901 373.392 96.1377 373.444 96.0849C373.497 96.0321 373.55 96.0079 373.575 95.9993C373.596 95.9924 373.586 96 373.527 96V98C373.959 98 374.466 97.8915 374.859 97.4991C375.251 97.1068 375.359 96.5995 375.359 96.168H373.359ZM373.527 96H366.871V98H373.527V96ZM407.022 50.6L406.108 51.0061L406.133 51.0627L406.165 51.1157L407.022 50.6ZM423.278 77.608L422.421 78.1237L423.283 79.5556L424.137 78.1192L423.278 77.608ZM439.342 50.6L440.201 51.1112L440.209 51.0985L440.216 51.0856L439.342 50.6ZM439.982 64.424H440.982V60.7993L439.123 63.9113L439.982 64.424ZM426.222 87.464L425.363 86.9513L425.333 87.0029L425.308 87.0579L426.222 87.464ZM419.95 87.464L420.824 86.9784L420.815 86.962L420.805 86.946L419.95 87.464ZM406.19 64.744L407.045 64.226L405.19 61.1625V64.744H406.19ZM398.702 96C398.644 96 398.633 95.9924 398.654 95.9993C398.68 96.0079 398.732 96.0321 398.785 96.0849C398.838 96.1377 398.862 96.1901 398.871 96.2158C398.878 96.2366 398.87 96.2263 398.87 96.168H396.87C396.87 96.5995 396.979 97.1068 397.371 97.4991C397.763 97.8915 398.271 98 398.702 98V96ZM398.87 96.168V50.856H396.87V96.168H398.87ZM398.87 50.856C398.87 50.7977 398.878 50.7874 398.871 50.8082C398.862 50.8339 398.838 50.8863 398.785 50.9391C398.732 50.9919 398.68 51.0161 398.654 51.0247C398.633 51.0316 398.644 51.024 398.702 51.024V49.024C398.271 49.024 397.763 49.1325 397.371 49.5249C396.979 49.9172 396.87 50.4245 396.87 50.856H398.87ZM398.702 51.024H406.062V49.024H398.702V51.024ZM406.062 51.024C406.112 51.024 406.139 51.0291 406.15 51.0317C406.159 51.0339 406.153 51.0337 406.139 51.0255C406.133 51.0216 406.126 51.0168 406.12 51.0113C406.113 51.0058 406.108 51.0006 406.105 50.9965C406.097 50.9878 406.1 50.9882 406.108 51.0061L407.936 50.1939C407.778 49.8386 407.527 49.5254 407.168 49.3105C406.818 49.1 406.432 49.024 406.062 49.024V51.024ZM406.165 51.1157L422.421 78.1237L424.135 77.0923L407.879 50.0843L406.165 51.1157ZM424.137 78.1192L440.201 51.1112L438.483 50.0888L422.419 77.0968L424.137 78.1192ZM440.216 51.0856C440.235 51.0514 440.249 51.0342 440.256 51.0274C440.261 51.0212 440.262 51.0223 440.257 51.0255C440.251 51.0287 440.248 51.0293 440.251 51.0285C440.255 51.0275 440.271 51.024 440.302 51.024V49.024C439.934 49.024 439.564 49.1085 439.228 49.3105C438.892 49.5116 438.645 49.7964 438.468 50.1144L440.216 51.0856ZM440.302 51.024H447.47V49.024H440.302V51.024ZM447.47 51.024C447.528 51.024 447.539 51.0316 447.518 51.0247C447.492 51.0161 447.44 50.9919 447.387 50.9391C447.334 50.8863 447.31 50.8339 447.301 50.8082C447.294 50.7874 447.302 50.7977 447.302 50.856H449.302C449.302 50.4245 449.193 49.9172 448.801 49.5249C448.409 49.1325 447.901 49.024 447.47 49.024V51.024ZM447.302 50.856V96.168H449.302V50.856H447.302ZM447.302 96.168C447.302 96.2263 447.294 96.2366 447.301 96.2158C447.31 96.1901 447.334 96.1377 447.387 96.0849C447.44 96.0321 447.492 96.0079 447.518 95.9993C447.539 95.9924 447.528 96 447.47 96V98C447.901 98 448.409 97.8915 448.801 97.4991C449.193 97.1068 449.302 96.5995 449.302 96.168H447.302ZM447.47 96H440.814V98H447.47V96ZM440.814 96C440.756 96 440.745 95.9924 440.766 95.9993C440.792 96.0079 440.844 96.0321 440.897 96.0849C440.95 96.1377 440.974 96.1901 440.983 96.2158C440.99 96.2366 440.982 96.2263 440.982 96.168H438.982C438.982 96.5995 439.091 97.1068 439.483 97.4991C439.875 97.8915 440.383 98 440.814 98V96ZM440.982 96.168V64.424H438.982V96.168H440.982ZM439.123 63.9113L425.363 86.9513L427.081 87.9767L440.841 64.9367L439.123 63.9113ZM425.308 87.0579C425.3 87.0758 425.297 87.0762 425.305 87.0675C425.308 87.0634 425.313 87.0582 425.32 87.0527C425.326 87.0472 425.333 87.0424 425.34 87.0385C425.353 87.0303 425.359 87.0301 425.35 87.0323C425.339 87.0349 425.312 87.04 425.262 87.04V89.04C425.632 89.04 426.018 88.964 426.368 88.7535C426.727 88.5386 426.978 88.2254 427.136 87.8701L425.308 87.0579ZM425.262 87.04H420.91V89.04H425.262V87.04ZM420.91 87.04C420.879 87.04 420.863 87.0365 420.859 87.0355C420.856 87.0347 420.859 87.0353 420.865 87.0385C420.87 87.0417 420.869 87.0428 420.864 87.0366C420.857 87.0298 420.843 87.0126 420.824 86.9784L419.076 87.9496C419.253 88.2676 419.5 88.5524 419.836 88.7535C420.172 88.9555 420.542 89.04 420.91 89.04V87.04ZM420.805 86.946L407.045 64.226L405.335 65.262L419.095 87.982L420.805 86.946ZM405.19 64.744V96.168H407.19V64.744H405.19ZM405.19 96.168C405.19 96.2263 405.182 96.2366 405.189 96.2158C405.198 96.1901 405.222 96.1377 405.275 96.0849C405.328 96.0321 405.38 96.0079 405.406 95.9993C405.427 95.9924 405.416 96 405.358 96V98C405.789 98 406.297 97.8915 406.689 97.4991C407.081 97.1068 407.19 96.5995 407.19 96.168H405.19ZM405.358 96H398.702V98H405.358V96ZM463.677 95.464L463.178 96.3305L463.184 96.334L463.677 95.464ZM457.854 89.384L456.959 89.8312L456.963 89.8399L456.968 89.8485L457.854 89.384ZM457.854 71.528L456.965 71.0693L456.962 71.0749L457.854 71.528ZM463.677 65.384L463.184 64.514L463.178 64.5176L463.677 65.384ZM481.214 65.576L480.662 66.4103L480.671 66.416L480.68 66.4215L481.214 65.576ZM486.654 72.168L487.576 71.7824L486.654 72.168ZM488.318 82.152L489.315 82.2287L489.317 82.2016L489.317 82.1745L488.318 82.152ZM464.702 82.984V81.984H463.521L463.715 83.1484L464.702 82.984ZM467.326 88.36L466.642 89.0895L466.647 89.0948L466.653 89.0999L467.326 88.36ZM479.997 86.504L480.851 87.0249L480.862 87.0075L480.872 86.9896L479.997 86.504ZM481.086 86.12L481.414 85.1756L481.372 85.1608L481.328 85.1499L481.086 86.12ZM486.781 88.104L487.14 87.1707L487.126 87.1649L487.11 87.1596L486.781 88.104ZM487.229 89.192L486.335 88.7448V88.7448L487.229 89.192ZM481.277 95.528L480.796 94.6518L481.277 95.528ZM479.422 76.776V77.776H480.636L480.403 76.584L479.422 76.776ZM477.053 72.232L476.373 72.9648L476.38 72.9714L476.387 72.9779L477.053 72.232ZM467.582 72.232L468.209 73.0104L468.212 73.0081L467.582 72.232ZM464.829 76.776L463.862 76.5236L463.535 77.776H464.829V76.776ZM472.638 96.64C469.369 96.64 466.558 95.9467 464.171 94.594L463.184 96.334C465.917 97.8827 469.079 98.64 472.638 98.64V96.64ZM464.177 94.5976C461.826 93.2427 460.017 91.3563 458.739 88.9194L456.968 89.8485C458.42 92.617 460.495 94.784 463.178 96.3304L464.177 94.5976ZM458.748 88.9368C457.503 86.4468 456.87 83.6164 456.87 80.424H454.87C454.87 83.8876 455.559 87.0305 456.959 89.8312L458.748 88.9368ZM456.87 80.424C456.87 77.2313 457.503 74.4248 458.745 71.981L456.962 71.0749C455.559 73.8365 454.87 76.9607 454.87 80.424H456.87ZM458.742 71.9866C460.022 69.5073 461.83 67.6029 464.177 66.2504L463.178 64.5176C460.49 66.0665 458.416 68.258 456.965 71.0694L458.742 71.9866ZM464.171 66.254C466.558 64.9013 469.369 64.208 472.638 64.208V62.208C469.079 62.208 465.917 62.9653 463.184 64.514L464.171 66.254ZM472.638 64.208C475.802 64.208 478.462 64.9564 480.662 66.4103L481.765 64.7417C479.187 63.0383 476.129 62.208 472.638 62.208V64.208ZM480.68 66.4215C482.924 67.8392 484.609 69.8691 485.731 72.5536L487.576 71.7824C486.309 68.7495 484.367 66.3848 481.747 64.7305L480.68 66.4215ZM485.731 72.5536C486.861 75.2574 487.401 78.4413 487.318 82.1295L489.317 82.1745C489.405 78.2681 488.836 74.7959 487.576 71.7824L485.731 72.5536ZM487.32 82.0753C487.316 82.1336 487.307 82.1488 487.312 82.1364C487.319 82.1203 487.339 82.0823 487.381 82.0432C487.423 82.0041 487.463 81.9866 487.48 81.981C487.494 81.9766 487.479 81.984 487.422 81.984V83.984C487.859 83.984 488.35 83.8732 488.742 83.5088C489.134 83.1449 489.281 82.6641 489.315 82.2287L487.32 82.0753ZM487.422 81.984H464.702V83.984H487.422V81.984ZM463.715 83.1484C464.126 85.6142 465.08 87.6255 466.642 89.0895L468.009 87.6305C466.84 86.5345 466.045 84.9618 465.688 82.8196L463.715 83.1484ZM466.653 89.0999C468.271 90.5713 470.315 91.28 472.702 91.28V89.28C470.736 89.28 469.196 88.7087 467.998 87.6201L466.653 89.0999ZM472.702 91.28C476.325 91.28 479.107 89.8827 480.851 87.0249L479.144 85.9831C477.816 88.16 475.734 89.28 472.702 89.28V91.28ZM480.872 86.9896C480.878 86.9785 480.873 86.9909 480.85 87.0114C480.825 87.0333 480.794 87.0518 480.762 87.063C480.733 87.0735 480.718 87.072 480.729 87.072C480.742 87.072 480.779 87.074 480.843 87.0901L481.328 85.1499C480.95 85.0555 480.52 85.0276 480.097 85.177C479.652 85.3338 479.331 85.6453 479.123 86.0184L480.872 86.9896ZM480.757 87.0644L486.453 89.0484L487.11 87.1596L481.414 85.1756L480.757 87.0644ZM486.423 89.0373C486.491 89.0635 486.503 89.0784 486.488 89.066C486.469 89.0499 486.42 89.0021 486.385 88.9167C486.349 88.8299 486.348 88.7545 486.353 88.7149C486.357 88.6825 486.362 88.6901 486.335 88.7448L488.124 89.6392C488.321 89.246 488.462 88.708 488.234 88.1553C488.011 87.614 487.543 87.3255 487.14 87.1707L486.423 89.0373ZM486.335 88.7448C485.01 91.394 483.164 93.3493 480.796 94.6518L481.759 96.4042C484.511 94.8907 486.633 92.622 488.124 89.6392L486.335 88.7448ZM480.796 94.6518C478.397 95.971 475.685 96.64 472.638 96.64V98.64C475.99 98.64 479.038 97.901 481.759 96.4042L480.796 94.6518ZM480.403 76.584C479.988 74.4614 479.114 72.7309 477.72 71.4861L476.387 72.9779C477.383 73.8664 478.087 75.1653 478.44 76.968L480.403 76.584ZM477.734 71.4992C476.335 70.2005 474.591 69.568 472.573 69.568V71.568C474.14 71.568 475.382 72.0449 476.373 72.9648L477.734 71.4992ZM472.573 69.568C470.409 69.568 468.515 70.1849 466.951 71.4559L468.212 73.0081C469.378 72.0604 470.812 71.568 472.573 71.568V69.568ZM466.954 71.4536C465.434 72.6792 464.417 74.395 463.862 76.5236L465.797 77.0284C466.266 75.2317 467.084 73.9181 468.209 73.0104L466.954 71.4536ZM464.829 77.776H479.422V75.776H464.829V77.776Z" fill="#363636" mask="url(#path-2-outside-1_45_180)"/>
<path d="M264.276 121.248C264.036 121.056 263.988 120.84 264.132 120.6L266.724 116.172L262.836 113.688C262.692 113.568 262.62 113.448 262.62 113.328C262.62 113.28 262.644 113.184 262.692 113.04L263.34 111.744C263.388 111.624 263.472 111.552 263.592 111.528C263.712 111.48 263.832 111.48 263.952 111.528L268.128 113.148L268.632 109.008C268.68 108.72 268.848 108.576 269.136 108.576H270.612C270.924 108.576 271.092 108.72 271.116 109.008L271.62 113.148L275.796 111.528C275.844 111.504 275.916 111.492 276.012 111.492C276.204 111.492 276.336 111.576 276.408 111.744L277.056 113.04C277.104 113.184 277.128 113.28 277.128 113.328C277.128 113.448 277.056 113.568 276.912 113.688L273.024 116.172L275.616 120.6C275.664 120.696 275.688 120.78 275.688 120.852C275.688 120.996 275.616 121.128 275.472 121.248L274.32 122.076C274.248 122.124 274.152 122.148 274.032 122.148C273.888 122.148 273.768 122.1 273.672 122.004L269.892 118.152L266.076 122.004C265.98 122.1 265.86 122.148 265.716 122.148C265.596 122.148 265.5 122.124 265.428 122.076L264.276 121.248Z" fill="white"/>
<circle cx="50.5" cy="67.5" r="5.5" fill="white"/>
<circle cx="117" cy="128" r="8.75" fill="white" stroke="#363636" stroke-width="0.5"/>
<circle cx="172" cy="41" r="3" fill="white"/>
<circle cx="522" cy="107" r="5.75" fill="white" stroke="#363636" stroke-width="0.5"/>
<circle cx="385" cy="104" r="2.75" fill="white" stroke="#363636" stroke-width="0.5"/>
<circle cx="353" cy="6" r="5.75" fill="white" stroke="#363636" stroke-width="0.5"/>
<circle cx="254.5" cy="23.5" r="6.5" fill="white"/>
<path d="M477.04 30.2468V29.7532L475.472 29.5014C469.124 28.4815 464.227 23.5108 463.431 17.2941L462.748 11.9682L462.252 11.9682L461.569 17.2941C460.773 23.5109 455.876 28.4815 449.528 29.5014L447.96 29.7532L447.96 30.2468L449.528 30.4986C455.876 31.5185 460.773 36.4892 461.569 42.7059L462.252 48.0318H462.748L463.431 42.7059C464.227 36.4891 469.124 31.5185 475.472 30.4986L477.04 30.2468Z" fill="white" stroke="#363636" stroke-width="0.5"/>
</svg>
